<?xml version="1.0" encoding="UTF-8"?>
<svg id="Layer_1_copy" xmlns="http://www.w3.org/2000/svg" viewBox="0 0 1298.32 800">
  <path d="M768.25,305.55V65.49h-256.18v69.48c5.54,4.21,10.84,8.63,15.91,13.27,18.12,16.61,32.91,35.35,44.38,56.22h31.8v492.25h164.09v-33.98c-20.78-20.16-36.88-43.32-48.29-69.49-12.27-28.19-18.41-58.18-18.41-89.99,0-35.73,7.95-74.38,23.86-115.95,10.54-27.56,24.82-54.81,42.84-81.75Z"/>
  <path d="M581.14,222.33c-2.67-6.12-5.6-12.08-8.78-17.87h-60.29v-69.49c-19.76-15.04-42.5-27.37-68.23-36.96-32.94-12.27-70.32-18.42-112.18-18.42s-78.42,6.15-111.34,18.42c-32.94,12.28-60.98,29.17-84.14,50.65-23.16,21.49-40.89,46.6-53.16,75.34-12.28,28.75-18.41,59.86-18.41,93.35,0,31.26,5.29,60.56,15.9,87.9,10.6,27.35,25.25,51.21,43.95,71.58,18.7,20.38,41.02,36.41,66.98,48.13,25.95,11.72,54.27,17.58,84.97,17.58,7.81,0,16.74-.96,26.79-2.93,10.04-1.95,22.88-7.66,38.51-17.16h3.35l-179.16,205.94h190.04l146.5-177.48c32.93-40.18,57.35-81.06,73.25-122.64,15.91-41.57,23.86-80.22,23.86-115.95,0-31.81-6.14-61.8-18.41-89.99ZM428.77,354.6c-5.58,12.56-13.12,23.58-22.6,33.07-9.5,9.49-20.51,17.03-33.07,22.6-12.56,5.59-26.09,8.37-40.6,8.37s-28.05-2.78-40.6-8.37c-12.56-5.57-23.59-13.11-33.07-22.6-9.5-9.49-17.03-20.51-22.6-33.07-5.59-12.56-8.38-26.08-8.38-40.6s2.79-28.05,8.38-40.6c5.57-12.56,13.1-23.58,22.6-33.07,9.48-9.49,20.51-17.02,33.07-22.61,12.55-5.57,26.08-8.37,40.6-8.37s28.04,2.8,40.6,8.37c12.56,5.59,23.57,13.12,33.07,22.61,9.48,9.49,17.02,20.51,22.6,33.07,5.58,12.55,8.37,26.09,8.37,40.6s-2.79,28.04-8.37,40.6Z"/>
  <path d="M1220.59,410.32c-10.6-27.35-25.25-51.21-43.95-71.58-18.7-20.38-41.03-36.41-66.98-48.13-25.95-11.72-54.27-17.58-84.97-17.58-7.81,0-16.74.96-26.79,2.93-10.04,1.95-22.88,7.66-38.51,17.16h-3.35l179.16-205.94h-190.04l-146.5,177.47c-11.11,13.55-21.25,27.18-30.41,40.9v357.18c1.6,1.56,3.22,3.09,4.87,4.6,23.17,21.2,51.21,37.95,84.14,50.23,32.94,12.27,70.32,18.42,112.18,18.42s78.42-6.15,111.34-18.42c32.94-12.28,60.98-29.17,84.14-50.65,23.16-21.49,40.89-46.6,53.16-75.34,12.28-28.75,18.41-59.86,18.41-93.35,0-31.26-5.29-60.56-15.9-87.9ZM1064.87,542.17c-5.57,12.56-13.1,23.58-22.6,33.07-9.48,9.49-20.51,17.02-33.07,22.61-12.55,5.57-26.08,8.37-40.6,8.37s-28.04-2.8-40.6-8.37c-12.56-5.59-23.57-13.12-33.07-22.61-9.48-9.49-17.02-20.51-22.6-33.07-5.58-12.55-8.37-26.09-8.37-40.6s2.79-28.04,8.37-40.6c5.58-12.56,13.12-23.58,22.6-33.07,9.5-9.49,20.51-17.03,33.07-22.6,12.56-5.59,26.09-8.37,40.6-8.37s28.05,2.78,40.6,8.37c12.56,5.57,23.59,13.11,33.07,22.6,9.5,9.49,17.03,20.51,22.6,33.07,5.59,12.56,8.38,26.08,8.38,40.6s-2.79,28.05-8.38,40.6Z"/>
</svg>