<?xml version="1.0" encoding="UTF-8"?>
<svg xmlns="http://www.w3.org/2000/svg" viewBox="0 0 500 500">
  <defs>
    <style>
      .cls-1 {
        fill: #f4a351;
      }

      .cls-2 {
        fill: #00c6b7;
      }
    </style>
  </defs>
  <g id="Layer_2">
    <rect class="cls-1" x="250" y="250" width="250" height="250" transform="translate(750 750) rotate(180)"/>
    <rect class="cls-1" x="0" y="250" width="250" height="250" transform="translate(500 250) rotate(90)"/>
    <rect class="cls-1" x="0" width="250" height="250"/>
    <rect class="cls-1" x="250" width="250" height="250" transform="translate(250 500) rotate(-90)"/>
  </g>
  <g id="Layer_1">
    <path class="cls-2" d="M250,250h250c0,69.04-55.96,125-125,125-69.04,0-125-55.96-125-125Z"/>
    <path class="cls-2" d="M250,250V0C319.04,0,375,55.96,375,125s-55.96,125-125,125Z"/>
    <path class="cls-2" d="M500,0v250c-69.04,0-125-55.96-125-125C375,55.96,430.96,0,500,0Z"/>
    <path class="cls-2" d="M0,500v-250c69.04,0,125,55.96,125,125S69.04,500,0,500Z"/>
    <path class="cls-2" d="M125,500v-250c69.04,0,125,55.96,125,125,0,69.04-55.96,125-125,125Z"/>
    <path class="cls-2" d="M250,375h250c0,69.04-55.96,125-125,125-69.04,0-125-55.96-125-125Z"/>
    <path class="cls-2" d="M250,250H0c0-69.04,55.96-125,125-125,69.04,0,125,55.96,125,125Z"/>
    <path class="cls-2" d="M250,125H0C0,55.96,55.96,0,125,0,194.04,0,250,55.96,250,125Z"/>
  </g>
</svg>