<?xml version="1.0" encoding="UTF-8"?>
<svg id="Layer_1" xmlns="http://www.w3.org/2000/svg" viewBox="0 0 487.1 403.05">
  <defs>
    <style>
      .cls-1 {
        fill: #fff;
      }

      .cls-2 {
        fill: red;
      }
    </style>
  </defs>
  <path class="cls-2" d="M26.21,403.05h434.67c20.51,0,33.05-22.52,22.25-39.96L265.8,12.39c-10.23-16.51-34.26-16.51-44.5,0L3.97,363.09c-10.81,17.44,1.73,39.96,22.25,39.96Z"/>
  <polygon class="cls-1" points="45.01 364.78 243.55 44.41 442.09 364.78 45.01 364.78"/>
  <path d="M225.45,309.87c0-9.31,6.47-16.03,15.26-16.03,9.31,0,15.25,6.73,15.25,16.03s-5.95,16.03-15.25,16.03-15.26-6.98-15.26-16.03ZM231.92,272.9l-3.62-124.12h24.82l-3.62,124.12h-17.58Z"/>
</svg>